<?xml version="1.0" encoding="utf-8"?><!-- Uploaded to: SVG Repo, www.svgrepo.com, Generator: SVG Repo Mixer Tools -->
<svg fill="#000000" width="800px" height="800px" viewBox="0 0 24 24" id="deadlift" data-name="Flat Color" xmlns="http://www.w3.org/2000/svg" class="icon flat-color"><path id="primary" d="M14.2,7A3,3,0,0,0,15,5,3,3,0,0,0,9,5a3,3,0,0,0,.8,2A3,3,0,0,0,7,10v5a1,1,0,0,0,2,0v6a1,1,0,0,0,2,0V14a1,1,0,0,0-2,0V10a1,1,0,0,1,1-1h4a1,1,0,0,1,1,1v4a1,1,0,0,0-2,0v7a1,1,0,0,0,2,0V15a1,1,0,0,0,2,0V10A3,3,0,0,0,14.2,7Z" style="fill: rgb(0, 0, 0);"></path><path id="secondary" d="M20,17a1,1,0,0,1-1-1V15H5v1a1,1,0,0,1-2,0,1,1,0,0,1-1-1V13a1,1,0,0,1,1-1,1,1,0,0,1,2,0v1H19V12a1,1,0,0,1,2,0,1,1,0,0,1,1,1v2a1,1,0,0,1-1,1A1,1,0,0,1,20,17Z" style="fill: rgb(44, 169, 188);"></path></svg>