<?xml version="1.0" encoding="utf-8"?><!-- Uploaded to: SVG Repo, www.svgrepo.com, Generator: SVG Repo Mixer Tools -->
<svg fill="#000000" width="800px" height="800px" viewBox="0 0 24 24" id="bench-press-7" data-name="Flat Color" xmlns="http://www.w3.org/2000/svg" class="icon flat-color"><path id="secondary" d="M20,10a1,1,0,0,1-1-1V7H5V9A1,1,0,0,1,3,9,1,1,0,0,1,2,8V4A1,1,0,0,1,3,3,1,1,0,0,1,5,3V5H19V3a1,1,0,0,1,2,0,1,1,0,0,1,1,1V8a1,1,0,0,1-1,1A1,1,0,0,1,20,10Z" style="fill: rgb(44, 169, 188);"></path><path id="primary" d="M19,22H5a1,1,0,0,1,0-2H7V4A1,1,0,0,1,9,4V20h6V4a1,1,0,0,1,2,0V20h2a1,1,0,0,1,0,2Z" style="fill: rgb(0, 0, 0);"></path></svg>